<?xml version="1.0" standalone="no"?>
<!DOCTYPE svg PUBLIC "-//W3C//DTD SVG 20010904//EN"
 "http://www.w3.org/TR/2001/REC-SVG-20010904/DTD/svg10.dtd">
<svg version="1.0" xmlns="http://www.w3.org/2000/svg"
 width="78.000000pt" height="78.000000pt" viewBox="0 0 78.000000 78.000000"
 preserveAspectRatio="xMidYMid meet">
<metadata>
Created by potrace 1.14, written by Peter Selinger 2001-2017
</metadata>
<g transform="translate(0.000000,78.000000) scale(0.100000,-0.100000)"
fill="#000000" stroke="none">
<path d="M253 635 c-7 -7 -27 -41 -44 -74 -18 -34 -37 -61 -42 -61 -6 0 -8 -3
-5 -6 3 -3 -23 -55 -58 -115 -59 -101 -64 -115 -64 -168 l0 -59 35 -4 c19 -2
35 -1 35 4 0 4 13 5 29 2 31 -6 34 -3 101 121 47 85 81 145 85 145 3 0 34 -51
73 -120 14 -25 28 -47 31 -50 13 -10 5 -35 -9 -31 -8 2 -22 3 -30 2 -8 0 -39
-1 -68 -2 -52 -1 -89 -20 -77 -40 4 -5 1 -9 -5 -9 -6 0 -9 -4 -6 -9 6 -9 302
-9 311 0 3 3 -25 57 -61 120 -37 63 -81 139 -99 169 -57 99 -57 99 -72 85 -7
-8 -13 -15 -13 -18 0 -3 -88 -163 -141 -254 -26 -46 -39 -55 -58 -44 -11 7 2
37 49 111 25 39 137 239 143 253 5 15 -12 67 -23 67 -3 -1 -10 -7 -17 -15z"/>
<path d="M530 570 c0 -6 -6 -9 -12 -7 -7 1 -14 -8 -16 -21 -2 -12 -8 -20 -13
-16 -10 6 46 -94 62 -110 5 -6 7 4 4 23 -3 27 -1 30 10 21 8 -7 17 -20 20 -31
9 -26 29 -24 45 6 16 30 24 24 27 -18 0 -18 2 -38 2 -44 1 -7 12 -13 26 -13
14 0 25 6 26 13 1 18 1 170 0 185 -1 6 -14 12 -29 12 -23 0 -33 -8 -48 -35
-10 -19 -22 -35 -25 -35 -4 0 -17 15 -28 34 -21 34 -51 55 -51 36z"/>
</g>
</svg>
